# xmcd CD database file
#
# Track frame offsets:
#	150
#	16355
#	28055
#	37100
#	47844
#	64298
#	80527
#	95527
#	105053
#	123053
#
# Disc length: 1775 seconds
#
# Revision: 1
# Processed by: cddbd v1.5.2PL0 Copyright (c) Steve Scherf et al.
# Submitted via: CDex 1.78
#
DISCID=7806ed0a
DTITLE=Etta James - Etta James Sings For Lovers
DYEAR=1962
DGENRE=Blues
TTITLE0=Don't Take Your Love From Me
TTITLE1=How Do You Speak To An Angel
TTITLE2=Fools Rush In
TTITLE3=Don't Blame Me
TTITLE4=Someone To Watch Over Me
TTITLE5=Again
TTITLE6=I Want To Be Loved
TTITLE7=It Could Happen To You
TTITLE8=These Foolish Things
TTITLE9=Prisoner Of Love
EXTD=YEAR: 1962
EXTT0=
EXTT1=
EXTT2=
EXTT3=
EXTT4=
EXTT5=
EXTT6=
EXTT7=
EXTT8=
EXTT9=
PLAYORDER=
